<mxfile host="app.diagrams.net" modified="2024-05-26T15:01:20.781Z" agent="Mozilla/5.0 (Windows NT 10.0; Win64; x64) AppleWebKit/537.36 (KHTML, like Gecko) Chrome/125.0.0.0 Safari/537.36" etag="c4u3bjOLJ6rV6i8e37N3" version="24.4.8" type="device">
  <diagram name="Σελίδα-1" id="J1K-lqP-7J5rzk15ZCDZ">
    <mxGraphModel dx="1461" dy="638" grid="1" gridSize="10" guides="1" tooltips="1" connect="1" arrows="1" fold="1" page="1" pageScale="1" pageWidth="827" pageHeight="1169" math="0" shadow="0">
      <root>
        <mxCell id="0" />
        <mxCell id="1" parent="0" />
        <mxCell id="LMrv7QfIIXrMGodJt3EN-1" value="user&lt;div&gt;&lt;br&gt;&lt;/div&gt;" style="shape=umlActor;verticalLabelPosition=bottom;verticalAlign=top;html=1;outlineConnect=0;" parent="1" vertex="1">
          <mxGeometry x="60" y="158" width="30" height="60" as="geometry" />
        </mxCell>
        <mxCell id="igp1iBR9HOWKYaaQKvBz-2" value="Οθόνη central menu&lt;div&gt;user&lt;/div&gt;" style="shape=umlBoundary;whiteSpace=wrap;html=1;" parent="1" vertex="1">
          <mxGeometry x="335" y="90" width="100" height="80" as="geometry" />
        </mxCell>
        <mxCell id="igp1iBR9HOWKYaaQKvBz-5" value="είναι verified;" style="ellipse;shape=umlControl;whiteSpace=wrap;html=1;" parent="1" vertex="1">
          <mxGeometry x="510" y="165" width="70" height="80" as="geometry" />
        </mxCell>
        <mxCell id="igp1iBR9HOWKYaaQKvBz-7" value="DataBase" style="ellipse;shape=umlEntity;whiteSpace=wrap;html=1;" parent="1" vertex="1">
          <mxGeometry x="1190" y="300" width="80" height="80" as="geometry" />
        </mxCell>
        <mxCell id="igp1iBR9HOWKYaaQKvBz-9" value="εμφάνισε&lt;div&gt;&lt;br&gt;&lt;/div&gt;" style="ellipse;shape=umlControl;whiteSpace=wrap;html=1;" parent="1" vertex="1">
          <mxGeometry x="480" y="300" width="70" height="80" as="geometry" />
        </mxCell>
        <mxCell id="igp1iBR9HOWKYaaQKvBz-12" value="Οθόνη εισαγωγής στοιχείων διαδρομής&amp;nbsp;" style="shape=umlBoundary;whiteSpace=wrap;html=1;" parent="1" vertex="1">
          <mxGeometry x="365" y="440" width="100" height="80" as="geometry" />
        </mxCell>
        <mxCell id="igp1iBR9HOWKYaaQKvBz-13" value="επιλέγει carpooling ως επιβάτης" style="text;html=1;align=center;verticalAlign=middle;resizable=0;points=[];autosize=1;strokeColor=none;fillColor=none;" parent="1" vertex="1">
          <mxGeometry x="140" y="100" width="190" height="30" as="geometry" />
        </mxCell>
        <mxCell id="igp1iBR9HOWKYaaQKvBz-15" value="εισάγει στοιχεία διαδρομής" style="text;html=1;align=center;verticalAlign=middle;resizable=0;points=[];autosize=1;strokeColor=none;fillColor=none;" parent="1" vertex="1">
          <mxGeometry x="240" y="325" width="160" height="30" as="geometry" />
        </mxCell>
        <mxCell id="igp1iBR9HOWKYaaQKvBz-18" value="εμφάνισε&lt;div&gt;οχήματα&lt;/div&gt;" style="ellipse;shape=umlControl;whiteSpace=wrap;html=1;" parent="1" vertex="1">
          <mxGeometry x="510" y="650" width="70" height="80" as="geometry" />
        </mxCell>
        <mxCell id="igp1iBR9HOWKYaaQKvBz-20" value="Οθόνη οχημάτων" style="shape=umlBoundary;whiteSpace=wrap;html=1;" parent="1" vertex="1">
          <mxGeometry x="364" y="720" width="100" height="80" as="geometry" />
        </mxCell>
        <mxCell id="igp1iBR9HOWKYaaQKvBz-24" value="εμφάνισε&amp;nbsp;" style="ellipse;shape=umlControl;whiteSpace=wrap;html=1;" parent="1" vertex="1">
          <mxGeometry x="520" y="830" width="70" height="80" as="geometry" />
        </mxCell>
        <mxCell id="igp1iBR9HOWKYaaQKvBz-26" value="Οθόνη με στοιχεία οδηγού/ επιβίβαση" style="shape=umlBoundary;whiteSpace=wrap;html=1;" parent="1" vertex="1">
          <mxGeometry x="330" y="930" width="100" height="80" as="geometry" />
        </mxCell>
        <mxCell id="igp1iBR9HOWKYaaQKvBz-28" value="Επιλέγει επιβίβαση" style="text;html=1;align=center;verticalAlign=middle;resizable=0;points=[];autosize=1;strokeColor=none;fillColor=none;" parent="1" vertex="1">
          <mxGeometry x="150" y="840" width="120" height="30" as="geometry" />
        </mxCell>
        <mxCell id="igp1iBR9HOWKYaaQKvBz-30" value="Αποστολή&amp;nbsp; στοιχείων επιβάτη σε οδηγό" style="ellipse;shape=umlControl;whiteSpace=wrap;html=1;" parent="1" vertex="1">
          <mxGeometry x="520" y="1000" width="70" height="80" as="geometry" />
        </mxCell>
        <mxCell id="igp1iBR9HOWKYaaQKvBz-32" value="καταχώρηση&lt;div&gt;αιτήματος&lt;/div&gt;" style="ellipse;shape=umlControl;whiteSpace=wrap;html=1;" parent="1" vertex="1">
          <mxGeometry x="720" y="930" width="70" height="80" as="geometry" />
        </mxCell>
        <mxCell id="igp1iBR9HOWKYaaQKvBz-34" value="όχι" style="text;html=1;align=center;verticalAlign=middle;resizable=0;points=[];autosize=1;strokeColor=none;fillColor=none;" parent="1" vertex="1">
          <mxGeometry x="590" y="200" width="40" height="30" as="geometry" />
        </mxCell>
        <mxCell id="igp1iBR9HOWKYaaQKvBz-44" value="Υπάρχουν διαθέσιμα οχήματα;" style="ellipse;shape=umlControl;whiteSpace=wrap;html=1;" parent="1" vertex="1">
          <mxGeometry x="510" y="530" width="70" height="80" as="geometry" />
        </mxCell>
        <mxCell id="igp1iBR9HOWKYaaQKvBz-48" value="όχι" style="text;html=1;align=center;verticalAlign=middle;resizable=0;points=[];autosize=1;strokeColor=none;fillColor=none;" parent="1" vertex="1">
          <mxGeometry x="570" y="500" width="40" height="30" as="geometry" />
        </mxCell>
        <mxCell id="igp1iBR9HOWKYaaQKvBz-49" value="εμφάνισε&lt;div&gt;&#39;No results&#39;&lt;/div&gt;" style="ellipse;shape=umlControl;whiteSpace=wrap;html=1;strokeColor=#FF0000;fillColor=#FFCCCC;" parent="1" vertex="1">
          <mxGeometry x="650" y="430" width="70" height="80" as="geometry" />
        </mxCell>
        <mxCell id="urBxIz_HFFqftYCF_cms-1" value="" style="endArrow=none;html=1;rounded=0;entryX=-0.05;entryY=0.508;entryDx=0;entryDy=0;entryPerimeter=0;" parent="1" source="LMrv7QfIIXrMGodJt3EN-1" target="igp1iBR9HOWKYaaQKvBz-2" edge="1">
          <mxGeometry width="50" height="50" relative="1" as="geometry">
            <mxPoint x="170" y="180" as="sourcePoint" />
            <mxPoint x="280" y="140" as="targetPoint" />
          </mxGeometry>
        </mxCell>
        <mxCell id="urBxIz_HFFqftYCF_cms-2" value="" style="endArrow=none;html=1;rounded=0;exitX=1.007;exitY=0.647;exitDx=0;exitDy=0;exitPerimeter=0;entryX=0.051;entryY=0.272;entryDx=0;entryDy=0;entryPerimeter=0;" parent="1" source="igp1iBR9HOWKYaaQKvBz-2" target="igp1iBR9HOWKYaaQKvBz-5" edge="1">
          <mxGeometry width="50" height="50" relative="1" as="geometry">
            <mxPoint x="580" y="350" as="sourcePoint" />
            <mxPoint x="630" y="300" as="targetPoint" />
          </mxGeometry>
        </mxCell>
        <mxCell id="urBxIz_HFFqftYCF_cms-3" value="" style="endArrow=none;html=1;rounded=0;exitX=0.91;exitY=0.118;exitDx=0;exitDy=0;exitPerimeter=0;entryX=0.03;entryY=0.322;entryDx=0;entryDy=0;entryPerimeter=0;" parent="1" source="igp1iBR9HOWKYaaQKvBz-2" target="igp1iBR9HOWKYaaQKvBz-7" edge="1">
          <mxGeometry width="50" height="50" relative="1" as="geometry">
            <mxPoint x="610" y="220" as="sourcePoint" />
            <mxPoint x="660" y="170" as="targetPoint" />
          </mxGeometry>
        </mxCell>
        <mxCell id="urBxIz_HFFqftYCF_cms-5" value="" style="endArrow=none;html=1;rounded=0;entryX=0.313;entryY=0.101;entryDx=0;entryDy=0;strokeColor=#FF0000;entryPerimeter=0;" parent="1" source="igp1iBR9HOWKYaaQKvBz-5" target="-hnzRvZuULK4vZO3f8a5-1" edge="1">
          <mxGeometry width="50" height="50" relative="1" as="geometry">
            <mxPoint x="610" y="220" as="sourcePoint" />
            <mxPoint x="735.5799999999999" y="286.6" as="targetPoint" />
          </mxGeometry>
        </mxCell>
        <mxCell id="urBxIz_HFFqftYCF_cms-9" value="" style="endArrow=none;html=1;rounded=0;exitX=-0.005;exitY=0.624;exitDx=0;exitDy=0;entryX=1.044;entryY=0.622;entryDx=0;entryDy=0;entryPerimeter=0;strokeColor=#FF0000;exitPerimeter=0;" parent="1" source="-hnzRvZuULK4vZO3f8a5-1" target="igp1iBR9HOWKYaaQKvBz-9" edge="1">
          <mxGeometry width="50" height="50" relative="1" as="geometry">
            <mxPoint x="680" y="323" as="sourcePoint" />
            <mxPoint x="660" y="170" as="targetPoint" />
          </mxGeometry>
        </mxCell>
        <mxCell id="urBxIz_HFFqftYCF_cms-13" value="" style="endArrow=none;html=1;rounded=0;exitX=0.986;exitY=0.418;exitDx=0;exitDy=0;exitPerimeter=0;strokeColor=#FF0000;entryX=0.055;entryY=0.864;entryDx=0;entryDy=0;entryPerimeter=0;" parent="1" source="igp1iBR9HOWKYaaQKvBz-44" target="igp1iBR9HOWKYaaQKvBz-49" edge="1">
          <mxGeometry width="50" height="50" relative="1" as="geometry">
            <mxPoint x="610" y="560" as="sourcePoint" />
            <mxPoint x="835" y="680" as="targetPoint" />
          </mxGeometry>
        </mxCell>
        <mxCell id="urBxIz_HFFqftYCF_cms-14" value="" style="endArrow=none;html=1;rounded=0;entryX=0.44;entryY=1.028;entryDx=0;entryDy=0;entryPerimeter=0;exitX=0.38;exitY=0.203;exitDx=0;exitDy=0;exitPerimeter=0;" parent="1" source="igp1iBR9HOWKYaaQKvBz-9" target="igp1iBR9HOWKYaaQKvBz-5" edge="1">
          <mxGeometry width="50" height="50" relative="1" as="geometry">
            <mxPoint x="610" y="400" as="sourcePoint" />
            <mxPoint x="660" y="350" as="targetPoint" />
            <Array as="points" />
          </mxGeometry>
        </mxCell>
        <mxCell id="urBxIz_HFFqftYCF_cms-15" value="" style="endArrow=none;html=1;rounded=0;exitX=0.46;exitY=1.023;exitDx=0;exitDy=0;exitPerimeter=0;entryX=0.58;entryY=-0.027;entryDx=0;entryDy=0;entryPerimeter=0;" parent="1" source="igp1iBR9HOWKYaaQKvBz-9" target="igp1iBR9HOWKYaaQKvBz-12" edge="1">
          <mxGeometry width="50" height="50" relative="1" as="geometry">
            <mxPoint x="610" y="400" as="sourcePoint" />
            <mxPoint x="660" y="350" as="targetPoint" />
          </mxGeometry>
        </mxCell>
        <mxCell id="urBxIz_HFFqftYCF_cms-16" value="" style="endArrow=none;html=1;rounded=0;entryX=-0.012;entryY=0.543;entryDx=0;entryDy=0;entryPerimeter=0;" parent="1" target="igp1iBR9HOWKYaaQKvBz-12" edge="1">
          <mxGeometry width="50" height="50" relative="1" as="geometry">
            <mxPoint x="100" y="210" as="sourcePoint" />
            <mxPoint x="660" y="350" as="targetPoint" />
          </mxGeometry>
        </mxCell>
        <mxCell id="urBxIz_HFFqftYCF_cms-17" value="" style="endArrow=none;html=1;rounded=0;exitX=0.591;exitY=1.029;exitDx=0;exitDy=0;exitPerimeter=0;entryX=-0.059;entryY=0.475;entryDx=0;entryDy=0;entryPerimeter=0;" parent="1" source="igp1iBR9HOWKYaaQKvBz-12" target="igp1iBR9HOWKYaaQKvBz-44" edge="1">
          <mxGeometry width="50" height="50" relative="1" as="geometry">
            <mxPoint x="630" y="590" as="sourcePoint" />
            <mxPoint x="680" y="540" as="targetPoint" />
          </mxGeometry>
        </mxCell>
        <mxCell id="urBxIz_HFFqftYCF_cms-18" value="" style="endArrow=none;html=1;rounded=0;exitX=0.411;exitY=1.047;exitDx=0;exitDy=0;exitPerimeter=0;entryX=0.366;entryY=0.127;entryDx=0;entryDy=0;entryPerimeter=0;" parent="1" source="igp1iBR9HOWKYaaQKvBz-44" target="igp1iBR9HOWKYaaQKvBz-18" edge="1">
          <mxGeometry width="50" height="50" relative="1" as="geometry">
            <mxPoint x="630" y="690" as="sourcePoint" />
            <mxPoint x="680" y="640" as="targetPoint" />
          </mxGeometry>
        </mxCell>
        <mxCell id="urBxIz_HFFqftYCF_cms-19" value="" style="endArrow=none;html=1;rounded=0;exitX=-0.046;exitY=0.613;exitDx=0;exitDy=0;exitPerimeter=0;entryX=0.498;entryY=0;entryDx=0;entryDy=0;entryPerimeter=0;" parent="1" source="igp1iBR9HOWKYaaQKvBz-18" target="igp1iBR9HOWKYaaQKvBz-20" edge="1">
          <mxGeometry width="50" height="50" relative="1" as="geometry">
            <mxPoint x="630" y="870" as="sourcePoint" />
            <mxPoint x="680" y="820" as="targetPoint" />
          </mxGeometry>
        </mxCell>
        <mxCell id="urBxIz_HFFqftYCF_cms-20" value="" style="endArrow=none;html=1;rounded=0;entryX=-0.014;entryY=0.53;entryDx=0;entryDy=0;entryPerimeter=0;" parent="1" target="igp1iBR9HOWKYaaQKvBz-20" edge="1">
          <mxGeometry width="50" height="50" relative="1" as="geometry">
            <mxPoint x="100" y="250" as="sourcePoint" />
            <mxPoint x="680" y="590" as="targetPoint" />
          </mxGeometry>
        </mxCell>
        <mxCell id="KByhmQYx1kFIg2CuTTcs-8" value="επιλέγει όχημα" style="edgeLabel;html=1;align=center;verticalAlign=middle;resizable=0;points=[];" parent="urBxIz_HFFqftYCF_cms-20" vertex="1" connectable="0">
          <mxGeometry x="0.3072" y="19" relative="1" as="geometry">
            <mxPoint x="22" y="-6" as="offset" />
          </mxGeometry>
        </mxCell>
        <mxCell id="urBxIz_HFFqftYCF_cms-21" value="" style="endArrow=none;html=1;rounded=0;exitX=0.867;exitY=0.933;exitDx=0;exitDy=0;exitPerimeter=0;entryX=0.403;entryY=0.142;entryDx=0;entryDy=0;entryPerimeter=0;" parent="1" source="igp1iBR9HOWKYaaQKvBz-20" target="igp1iBR9HOWKYaaQKvBz-24" edge="1">
          <mxGeometry width="50" height="50" relative="1" as="geometry">
            <mxPoint x="630" y="960" as="sourcePoint" />
            <mxPoint x="680" y="910" as="targetPoint" />
          </mxGeometry>
        </mxCell>
        <mxCell id="urBxIz_HFFqftYCF_cms-22" value="" style="endArrow=none;html=1;rounded=0;exitX=0.014;exitY=0.538;exitDx=0;exitDy=0;exitPerimeter=0;" parent="1" source="igp1iBR9HOWKYaaQKvBz-26" edge="1">
          <mxGeometry width="50" height="50" relative="1" as="geometry">
            <mxPoint x="425" y="1085.76" as="sourcePoint" />
            <mxPoint x="80" y="260" as="targetPoint" />
            <Array as="points" />
          </mxGeometry>
        </mxCell>
        <mxCell id="urBxIz_HFFqftYCF_cms-23" value="" style="endArrow=none;html=1;rounded=0;exitX=1.012;exitY=0.393;exitDx=0;exitDy=0;exitPerimeter=0;entryX=0.3;entryY=1.008;entryDx=0;entryDy=0;entryPerimeter=0;" parent="1" source="igp1iBR9HOWKYaaQKvBz-26" target="igp1iBR9HOWKYaaQKvBz-24" edge="1">
          <mxGeometry width="50" height="50" relative="1" as="geometry">
            <mxPoint x="520" y="980" as="sourcePoint" />
            <mxPoint x="580" y="1040" as="targetPoint" />
          </mxGeometry>
        </mxCell>
        <mxCell id="urBxIz_HFFqftYCF_cms-24" value="" style="endArrow=none;html=1;rounded=0;exitX=0.578;exitY=1.003;exitDx=0;exitDy=0;exitPerimeter=0;entryX=0;entryY=0.45;entryDx=0;entryDy=0;entryPerimeter=0;" parent="1" source="igp1iBR9HOWKYaaQKvBz-26" target="igp1iBR9HOWKYaaQKvBz-30" edge="1">
          <mxGeometry width="50" height="50" relative="1" as="geometry">
            <mxPoint x="520" y="980" as="sourcePoint" />
            <mxPoint x="520" y="1210" as="targetPoint" />
          </mxGeometry>
        </mxCell>
        <mxCell id="urBxIz_HFFqftYCF_cms-26" value="ναι" style="text;html=1;align=center;verticalAlign=middle;resizable=0;points=[];autosize=1;strokeColor=none;fillColor=none;" parent="1" vertex="1">
          <mxGeometry x="480" y="245" width="40" height="30" as="geometry" />
        </mxCell>
        <mxCell id="KByhmQYx1kFIg2CuTTcs-3" value="" style="endArrow=none;html=1;rounded=0;exitX=0.996;exitY=0.363;exitDx=0;exitDy=0;exitPerimeter=0;entryX=0;entryY=0.483;entryDx=0;entryDy=0;entryPerimeter=0;strokeColor=#FF0000;" parent="1" source="igp1iBR9HOWKYaaQKvBz-12" target="igp1iBR9HOWKYaaQKvBz-49" edge="1">
          <mxGeometry width="50" height="50" relative="1" as="geometry">
            <mxPoint x="650" y="530" as="sourcePoint" />
            <mxPoint x="700" y="480" as="targetPoint" />
          </mxGeometry>
        </mxCell>
        <mxCell id="KByhmQYx1kFIg2CuTTcs-4" value="" style="endArrow=none;html=1;rounded=0;exitX=1.017;exitY=0.65;exitDx=0;exitDy=0;exitPerimeter=0;entryX=0.02;entryY=0.682;entryDx=0;entryDy=0;entryPerimeter=0;" parent="1" source="igp1iBR9HOWKYaaQKvBz-44" target="igp1iBR9HOWKYaaQKvBz-7" edge="1">
          <mxGeometry width="50" height="50" relative="1" as="geometry">
            <mxPoint x="890" y="540" as="sourcePoint" />
            <mxPoint x="940" y="490" as="targetPoint" />
            <Array as="points" />
          </mxGeometry>
        </mxCell>
        <mxCell id="KByhmQYx1kFIg2CuTTcs-9" value="ναι" style="edgeLabel;html=1;align=center;verticalAlign=middle;resizable=0;points=[];" parent="KByhmQYx1kFIg2CuTTcs-4" vertex="1" connectable="0">
          <mxGeometry x="-0.8306" y="-8" relative="1" as="geometry">
            <mxPoint x="-16" y="14" as="offset" />
          </mxGeometry>
        </mxCell>
        <mxCell id="KByhmQYx1kFIg2CuTTcs-6" value="" style="endArrow=none;html=1;rounded=0;exitX=1.023;exitY=0.483;exitDx=0;exitDy=0;exitPerimeter=0;entryX=-0.023;entryY=0.801;entryDx=0;entryDy=0;entryPerimeter=0;" parent="1" source="igp1iBR9HOWKYaaQKvBz-30" target="igp1iBR9HOWKYaaQKvBz-32" edge="1">
          <mxGeometry width="50" height="50" relative="1" as="geometry">
            <mxPoint x="660" y="1050" as="sourcePoint" />
            <mxPoint x="710" y="1000" as="targetPoint" />
          </mxGeometry>
        </mxCell>
        <mxCell id="KByhmQYx1kFIg2CuTTcs-7" value="" style="endArrow=none;html=1;rounded=0;exitX=0.96;exitY=0.217;exitDx=0;exitDy=0;exitPerimeter=0;entryX=0.5;entryY=1;entryDx=0;entryDy=0;" parent="1" source="igp1iBR9HOWKYaaQKvBz-32" target="igp1iBR9HOWKYaaQKvBz-7" edge="1">
          <mxGeometry width="50" height="50" relative="1" as="geometry">
            <mxPoint x="830" y="900" as="sourcePoint" />
            <mxPoint x="880" y="850" as="targetPoint" />
          </mxGeometry>
        </mxCell>
        <mxCell id="-hnzRvZuULK4vZO3f8a5-1" value="εμφάνισε&lt;div&gt;μήνυμα&lt;br&gt;&lt;div&gt;&#39;Χρειάζετα επιβεβαίωση στοιχείων &#39;&lt;/div&gt;&lt;/div&gt;" style="ellipse;shape=umlControl;whiteSpace=wrap;html=1;strokeColor=#FF0000;fillColor=#FFCCCC;" vertex="1" parent="1">
          <mxGeometry x="730" y="300" width="90" height="90" as="geometry" />
        </mxCell>
      </root>
    </mxGraphModel>
  </diagram>
</mxfile>
